<svg width="375" height="546" viewBox="0 0 375 546" fill="none" xmlns="http://www.w3.org/2000/svg">
<g opacity="0.04">
<path d="M-98.3351 313.445C-71.4341 290.06 -38.2031 275.178 -2.84411 270.68C32.5148 266.182 68.4136 272.27 100.312 288.174C132.211 304.079 158.678 329.085 176.365 360.031C194.052 390.977 202.165 426.473 199.678 462.03C197.192 497.587 184.217 531.609 162.396 559.792C140.574 587.975 110.885 609.054 77.0826 620.364C43.2806 631.674 6.88392 632.707 -27.5049 623.331C-61.8937 613.956 -92.73 594.593 -116.115 567.693" stroke="white" stroke-width="4" stroke-linecap="round"/>
<path d="M421.95 183.828C397.421 205.151 382.366 235.346 380.099 267.768C377.832 300.191 388.537 332.187 409.861 356.716" stroke="white" stroke-width="80"/>
</g>
</svg>
