<svg width="375" height="667" viewBox="0 0 375 667" fill="none" xmlns="http://www.w3.org/2000/svg">
<g opacity="0.04">
<path d="M-67.8042 -3.11122C-45.8594 -31.1989 -16.0785 -52.1484 17.7725 -63.3106C51.6235 -74.4728 88.0244 -75.3464 122.372 -65.8209C156.719 -56.2953 187.471 -36.7984 210.738 -9.79577C234.005 17.2069 248.742 50.5026 253.085 85.8808C257.429 121.259 251.185 157.131 235.141 188.96C219.098 220.789 193.976 247.146 162.954 264.698C131.931 282.25 96.3997 290.208 60.8539 287.567C25.308 284.925 -8.65638 271.803 -36.7442 249.858" stroke="white" stroke-width="4" stroke-linecap="round"/>
<path d="M556.139 507.142C534.688 535.608 505.277 557.074 471.626 568.826C437.975 580.577 401.595 582.086 367.087 573.161C332.578 564.236 301.491 545.279 277.757 518.687C254.022 492.094 238.706 459.061 233.745 423.764C228.785 388.467 234.402 352.491 249.888 320.387C265.373 288.282 290.031 261.491 320.743 243.4C351.455 225.31 386.841 216.733 422.428 218.753C458.014 220.774 492.203 233.302 520.669 254.753" stroke="white" stroke-width="4" stroke-linecap="round"/>
<path d="M308.768 669.852C351.408 450.485 208.143 238.087 -11.2228 195.446" stroke="white" stroke-width="20"/>
</g>
</svg>
